<svg xmlns="http://www.w3.org/2000/svg" xmlns:xlink="http://www.w3.org/1999/xlink" width="40" zoomAndPan="magnify" viewBox="0 0 30 30.000001" height="40" preserveAspectRatio="xMidYMid meet" version="1.0"><defs><clipPath id="3c4b0e7df5"><path d="M 0.953125 0.699219 L 29.261719 0.699219 L 29.261719 28.28125 L 0.953125 28.28125 Z M 0.953125 0.699219 " clip-rule="nonzero"/></clipPath></defs><g clip-path="url(#3c4b0e7df5)"><path fill="#000000" d="M 4.859375 10.347656 C 4.957031 9.613281 4.917969 8.875 4.894531 8.140625 C 4.308594 8.414062 3.746094 8.710938 3.164062 9.019531 C 2.675781 9.277344 1.886719 9.367188 1.535156 9.816406 C 1.785156 10.207031 2.058594 10.585938 2.195312 11.023438 C 2.457031 11.015625 2.714844 11.003906 2.972656 10.996094 C 2.996094 10.980469 3.019531 10.964844 3.046875 10.957031 C 3.664062 10.757812 4.265625 10.558594 4.859375 10.347656 Z M 1.902344 13.019531 C 3.144531 12.90625 4.378906 12.90625 5.617188 12.925781 C 5.390625 12.402344 5.144531 11.859375 4.757812 11.441406 C 3.824219 11.488281 2.886719 11.53125 1.953125 11.5625 C 1.894531 12.054688 1.882812 12.539062 1.902344 13.019531 Z M 7.867188 9.082031 C 7.976562 8.296875 8.101562 7.519531 8.261719 6.742188 C 7.425781 7.082031 6.589844 7.421875 5.75 7.757812 C 5.546875 7.84375 5.351562 7.929688 5.15625 8.015625 C 5.179688 8.761719 5.21875 9.503906 5.140625 10.246094 C 6.0625 9.910156 6.96875 9.535156 7.867188 9.082031 Z M 9.027344 12.976562 C 8.839844 12.386719 8.582031 11.824219 8.320312 11.265625 C 7.242188 11.3125 6.167969 11.371094 5.09375 11.425781 C 5.445312 11.871094 5.683594 12.417969 5.910156 12.933594 C 6.515625 12.945312 7.121094 12.957031 7.734375 12.964844 C 8.160156 12.972656 8.59375 12.972656 9.027344 12.976562 Z M 10.949219 5.667969 C 10.148438 5.980469 9.355469 6.300781 8.5625 6.621094 C 8.398438 7.386719 8.269531 8.160156 8.15625 8.9375 C 8.992188 8.503906 9.847656 8.109375 10.707031 7.722656 C 10.824219 7.042969 10.839844 6.351562 10.949219 5.667969 Z M 12.285156 12.96875 C 11.855469 12.410156 11.4375 11.832031 11.167969 11.179688 C 10.316406 11.191406 9.460938 11.21875 8.609375 11.253906 C 8.875 11.816406 9.128906 12.382812 9.3125 12.976562 C 10.308594 12.980469 11.3125 12.972656 12.285156 12.96875 Z M 13.5625 6.445312 C 13.578125 5.824219 13.671875 5.203125 13.613281 4.585938 C 12.828125 4.914062 12.035156 5.238281 11.242188 5.550781 C 11.113281 6.226562 11.09375 6.914062 11 7.59375 C 11.632812 7.3125 12.269531 7.03125 12.902344 6.746094 C 13.121094 6.644531 13.34375 6.546875 13.5625 6.445312 Z M 13.828125 20.234375 C 13.820312 17.988281 13.765625 15.742188 13.746094 13.496094 C 11.828125 13.5 9.746094 13.53125 7.734375 13.496094 C 5.785156 13.464844 3.871094 13.367188 1.929688 13.550781 C 2.011719 14.664062 2.203125 15.761719 2.269531 16.902344 C 2.371094 18.679688 2.25 20.457031 2.265625 22.234375 C 2.273438 22.925781 2.3125 23.613281 2.324219 24.304688 C 2.332031 24.867188 2.265625 25.6875 2.613281 26.171875 C 3.265625 27.074219 5.339844 26.324219 6.230469 26.191406 C 6.242188 26.191406 6.246094 26.191406 6.257812 26.191406 C 6.1875 25.96875 6.121094 25.746094 6.058594 25.523438 C 5.878906 24.890625 5.789062 24.125 5.441406 23.5625 C 5.414062 23.515625 5.402344 23.46875 5.402344 23.425781 C 5.394531 23.40625 5.386719 23.386719 5.382812 23.367188 C 5.359375 23.261719 5.339844 23.21875 5.285156 23.132812 C 5.25 23.078125 5.242188 23.011719 5.253906 22.949219 C 5.214844 22.820312 5.261719 22.667969 5.433594 22.632812 C 5.761719 22.566406 6.089844 22.484375 6.410156 22.398438 C 6.09375 22.40625 5.742188 22.410156 5.363281 22.410156 C 4.023438 22.410156 2.941406 22.34375 2.941406 22.261719 C 2.941406 22.179688 4.023438 22.113281 5.363281 22.113281 C 6.117188 22.113281 6.785156 22.136719 7.230469 22.167969 C 8.300781 21.851562 9.363281 21.484375 10.433594 21.15625 C 10.320312 21.171875 10.210938 21.175781 10.09375 21.183594 C 9.949219 21.191406 9.816406 21.1875 9.667969 21.191406 C 9.097656 21.199219 8.464844 21.203125 7.800781 21.203125 C 6.476562 21.203125 5.273438 21.1875 4.40625 21.160156 C 3.535156 21.132812 3 21.09375 3 21.054688 C 3 21.015625 3.535156 20.976562 4.40625 20.949219 C 5.273438 20.921875 6.476562 20.90625 7.800781 20.90625 C 8.464844 20.90625 9.097656 20.910156 9.667969 20.917969 C 9.8125 20.917969 9.960938 20.921875 10.085938 20.917969 C 10.222656 20.917969 10.355469 20.917969 10.476562 20.90625 C 10.597656 20.894531 10.71875 20.882812 10.832031 20.867188 C 10.949219 20.855469 11.0625 20.835938 11.167969 20.820312 C 11.503906 20.773438 11.792969 20.734375 12.019531 20.710938 C 12.625 20.558594 13.226562 20.398438 13.828125 20.234375 Z M 13.976562 11.628906 C 14.007812 11.492188 14.03125 11.351562 14.066406 11.210938 C 13.195312 11.175781 12.328125 11.167969 11.457031 11.175781 C 11.742188 11.828125 12.179688 12.40625 12.617188 12.96875 C 12.996094 12.96875 13.375 12.964844 13.742188 12.964844 C 13.742188 12.839844 13.742188 12.714844 13.742188 12.589844 C 13.582031 12.414062 13.539062 12.179688 13.570312 11.941406 C 13.546875 11.820312 13.597656 11.691406 13.757812 11.664062 C 13.832031 11.652344 13.90625 11.636719 13.976562 11.628906 Z M 14.957031 16.324219 C 14.960938 15.078125 14.945312 13.835938 14.945312 12.617188 C 14.722656 12.628906 14.5 12.652344 14.277344 12.671875 C 14.28125 15.144531 14.355469 17.617188 14.363281 20.089844 C 14.527344 20.042969 14.695312 19.996094 14.863281 19.949219 C 14.765625 18.746094 14.957031 17.53125 14.957031 16.324219 Z M 16.289062 19.539062 C 16.351562 17.191406 16.949219 14.898438 16.96875 12.554688 C 16.382812 12.554688 15.796875 12.570312 15.214844 12.605469 C 15.214844 13.828125 15.234375 15.074219 15.226562 16.324219 C 15.21875 17.511719 15.039062 18.691406 15.125 19.875 C 15.511719 19.765625 15.902344 19.652344 16.289062 19.539062 Z M 16.554688 5.101562 C 16.742188 4.484375 16.746094 3.832031 16.859375 3.199219 C 15.863281 3.628906 14.867188 4.054688 13.867188 4.476562 C 13.933594 5.09375 13.859375 5.703125 13.835938 6.324219 C 14.738281 5.910156 15.644531 5.503906 16.554688 5.101562 Z M 17.195312 26.113281 C 17.214844 25.921875 17.234375 25.730469 17.253906 25.539062 C 17.042969 25.59375 16.832031 25.652344 16.628906 25.71875 C 16.445312 25.777344 16.257812 25.835938 16.074219 25.898438 C 16.445312 25.972656 16.820312 26.042969 17.195312 26.113281 Z M 18.015625 20.132812 C 18.359375 17.632812 18.59375 15.117188 18.921875 12.613281 C 18.359375 12.582031 17.796875 12.566406 17.234375 12.558594 C 17.21875 14.875 16.632812 17.140625 16.558594 19.457031 C 16.859375 19.367188 17.164062 19.277344 17.460938 19.183594 C 17.628906 19.132812 17.746094 19.238281 17.78125 19.367188 C 17.808594 19.394531 17.828125 19.433594 17.835938 19.480469 C 17.882812 19.703125 17.945312 19.917969 18.015625 20.132812 Z M 19.144531 24.429688 C 18.960938 22.8125 17.742188 21.363281 17.355469 19.773438 C 15.4375 20.363281 13.507812 20.910156 11.550781 21.378906 C 10.777344 21.566406 10.023438 21.804688 9.269531 22.050781 C 9.296875 22.117188 9.324219 22.1875 9.339844 22.257812 C 9.378906 22.421875 9.117188 22.492188 9.082031 22.328125 C 9.066406 22.261719 9.042969 22.195312 9.015625 22.136719 C 7.96875 22.480469 6.925781 22.832031 5.851562 23.082031 C 5.867188 23.128906 5.886719 23.175781 5.898438 23.226562 C 5.902344 23.25 5.902344 23.269531 5.902344 23.292969 C 5.902344 23.292969 5.902344 23.296875 5.90625 23.296875 C 6.28125 23.910156 6.386719 24.695312 6.578125 25.382812 C 6.796875 26.171875 7.0625 26.949219 7.289062 27.734375 C 8.269531 27.613281 9.226562 27.121094 10.183594 26.886719 C 10.296875 26.863281 10.414062 26.835938 10.527344 26.8125 C 10.507812 26.753906 10.484375 26.703125 10.453125 26.648438 C 10.378906 26.492188 10.609375 26.359375 10.6875 26.511719 C 10.726562 26.589844 10.761719 26.671875 10.789062 26.753906 C 11.644531 26.574219 12.503906 26.429688 13.34375 26.1875 C 14.402344 25.886719 15.441406 25.535156 16.488281 25.207031 C 17.351562 24.933594 18.3125 24.792969 19.144531 24.429688 Z M 18.984375 26.425781 C 19.09375 25.917969 19.226562 25.417969 19.355469 24.914062 C 18.773438 25.160156 18.148438 25.308594 17.527344 25.46875 C 17.503906 25.703125 17.480469 25.933594 17.457031 26.164062 C 17.964844 26.257812 18.472656 26.347656 18.984375 26.425781 Z M 19.257812 4.003906 C 19.386719 3.347656 19.558594 2.695312 19.601562 2.027344 C 18.785156 2.371094 17.972656 2.722656 17.160156 3.070312 C 17.019531 3.695312 17.019531 4.34375 16.871094 4.964844 C 17.1875 4.828125 17.507812 4.6875 17.828125 4.550781 C 18.292969 4.355469 18.773438 4.175781 19.257812 4.003906 Z M 20.257812 19.863281 C 20.632812 17.523438 21.089844 15.195312 21.453125 12.851562 C 20.699219 12.757812 19.945312 12.683594 19.1875 12.632812 C 18.835938 15.300781 18.59375 17.980469 18.210938 20.648438 C 18.671875 21.742188 19.339844 22.789062 19.597656 23.929688 C 19.660156 23.644531 19.71875 23.363281 19.769531 23.078125 C 19.957031 22.011719 20.089844 20.933594 20.257812 19.863281 Z M 22.179688 2.792969 C 21.921875 2.289062 21.707031 1.746094 21.339844 1.308594 C 20.851562 1.507812 20.359375 1.710938 19.875 1.914062 C 19.847656 2.585938 19.683594 3.238281 19.550781 3.894531 C 20.453125 3.570312 21.355469 3.238281 22.179688 2.792969 Z M 22.875 16.15625 C 23.09375 15.140625 23.191406 14.09375 23.476562 13.089844 C 22.949219 13.03125 22.421875 12.976562 21.894531 12.90625 C 21.832031 12.898438 21.773438 12.890625 21.714844 12.882812 C 21.355469 15.238281 20.878906 17.578125 20.519531 19.933594 C 20.339844 21.113281 20.207031 22.300781 19.96875 23.46875 C 19.890625 23.863281 19.796875 24.253906 19.699219 24.644531 C 19.695312 24.683594 19.6875 24.714844 19.671875 24.742188 C 19.527344 25.316406 19.375 25.886719 19.25 26.464844 C 19.789062 26.546875 20.332031 26.617188 20.878906 26.671875 C 21.5625 24.410156 21.570312 22.015625 22.050781 19.710938 C 22.300781 18.519531 22.617188 17.34375 22.875 16.15625 Z M 25.925781 13.554688 C 25.722656 13.5 25.519531 13.445312 25.316406 13.394531 C 24.796875 13.273438 24.273438 13.191406 23.746094 13.125 C 23.421875 14.242188 23.320312 15.417969 23.058594 16.550781 C 22.785156 17.730469 22.464844 18.910156 22.246094 20.105469 C 21.84375 22.292969 21.789062 24.558594 21.148438 26.699219 C 21.597656 26.742188 22.050781 26.773438 22.5 26.792969 C 22.777344 25.671875 23.164062 24.582031 23.40625 23.449219 C 23.644531 22.347656 23.828125 21.238281 24.097656 20.144531 C 24.636719 17.933594 25.296875 15.746094 25.925781 13.554688 Z M 27.527344 14.007812 C 27.402344 13.984375 27.289062 13.960938 27.195312 13.929688 C 26.855469 13.828125 26.519531 13.722656 26.179688 13.625 C 25.523438 15.921875 24.789062 18.21875 24.277344 20.546875 C 24.035156 21.644531 23.851562 22.753906 23.59375 23.847656 C 23.359375 24.84375 23.023438 25.808594 22.773438 26.800781 C 23.160156 26.8125 23.546875 26.8125 23.929688 26.800781 C 24.101562 25.941406 24.472656 25.125 24.703125 24.273438 C 25.007812 23.140625 25.34375 22.011719 25.671875 20.882812 C 26.332031 18.601562 26.898438 16.296875 27.527344 14.007812 Z M 28.21875 15.007812 C 28.273438 14.773438 28.339844 14.539062 28.414062 14.3125 C 28.246094 14.1875 28.019531 14.117188 27.789062 14.066406 C 27.191406 16.25 26.652344 18.453125 26.019531 20.632812 C 25.691406 21.765625 25.347656 22.898438 25.042969 24.039062 C 24.796875 24.953125 24.386719 25.859375 24.199219 26.789062 C 24.414062 26.78125 24.628906 26.765625 24.84375 26.75 C 25.28125 25.703125 25.515625 24.578125 25.851562 23.5 C 26.183594 22.4375 26.53125 21.382812 26.855469 20.320312 C 27.179688 19.246094 27.507812 18.160156 27.777344 17.070312 C 27.941406 16.410156 28.046875 15.738281 28.203125 15.078125 C 28.203125 15.054688 28.210938 15.03125 28.21875 15.007812 Z M 28.5 13.125 C 28.625 12.957031 28.617188 12.800781 28.507812 12.613281 C 28.4375 12.5 28.339844 12.394531 28.234375 12.300781 L 28.203125 12.269531 C 28.199219 12.269531 28.203125 12.269531 28.191406 12.261719 C 28.164062 12.25 28.175781 12.25 28.144531 12.242188 L 28.105469 12.234375 C 28.089844 12.230469 28.070312 12.226562 28.054688 12.21875 C 28.019531 12.207031 27.988281 12.1875 27.957031 12.167969 C 27.898438 12.125 27.855469 12.070312 27.808594 12.003906 C 27.785156 11.945312 27.753906 11.894531 27.75 11.832031 C 27.742188 11.800781 27.742188 11.773438 27.742188 11.742188 C 27.742188 11.71875 27.742188 11.699219 27.742188 11.683594 C 27.75 11.613281 27.753906 11.566406 27.753906 11.539062 C 27.753906 11.523438 27.753906 11.535156 27.738281 11.507812 C 27.734375 11.496094 27.71875 11.488281 27.710938 11.476562 C 27.699219 11.464844 27.6875 11.453125 27.671875 11.449219 C 27.621094 11.40625 27.542969 11.378906 27.464844 11.359375 L 27.433594 11.351562 C 27.410156 11.347656 27.382812 11.34375 27.359375 11.339844 C 27.3125 11.339844 27.261719 11.339844 27.210938 11.339844 C 27.117188 11.339844 27.023438 11.34375 26.929688 11.34375 C 26.953125 11.253906 26.976562 11.167969 26.996094 11.082031 C 27.011719 11.003906 27.023438 10.929688 27.039062 10.855469 C 27.035156 10.828125 27.035156 10.796875 27.03125 10.765625 C 27.023438 10.742188 27.015625 10.714844 27.011719 10.6875 C 26.921875 10.441406 26.703125 10.332031 26.460938 10.34375 C 26.40625 10.347656 25.871094 10.488281 25.867188 10.503906 C 26.046875 10.113281 25.894531 9.121094 25.25 9.515625 L 24.921875 9.714844 L 24.820312 9.402344 C 24.777344 9.28125 24.707031 9.1875 24.65625 9.152344 C 24.632812 9.136719 24.625 9.128906 24.617188 9.121094 C 24.609375 9.113281 24.582031 9.117188 24.5625 9.144531 C 24.558594 9.269531 24.535156 9.382812 24.519531 9.484375 C 24.46875 9.738281 24.402344 9.910156 24.347656 9.992188 C 24.378906 10.019531 24.40625 10.046875 24.429688 10.074219 C 24.558594 10.238281 24.605469 10.398438 24.632812 10.53125 C 24.6875 10.804688 24.613281 10.964844 24.585938 10.957031 C 24.554688 10.945312 24.566406 10.804688 24.472656 10.578125 C 24.429688 10.464844 24.363281 10.332031 24.257812 10.222656 C 24.046875 10.003906 23.914062 10.378906 23.769531 10.46875 C 23.730469 10.28125 23.75 9.992188 23.578125 9.859375 C 23.492188 9.789062 23.347656 9.773438 23.199219 9.8125 C 23.042969 9.847656 22.902344 9.9375 22.792969 10.039062 L 22.628906 10.199219 L 22.550781 9.992188 C 22.484375 9.8125 22.324219 9.71875 22.171875 9.730469 C 22.015625 9.742188 21.894531 9.859375 21.824219 9.984375 L 21.726562 10.148438 L 21.640625 9.992188 C 21.550781 9.820312 21.433594 9.710938 21.34375 9.648438 C 21.257812 9.589844 21.183594 9.5625 21.191406 9.542969 C 21.199219 9.523438 21.261719 9.507812 21.394531 9.546875 C 21.484375 9.578125 21.601562 9.644531 21.710938 9.757812 C 21.738281 9.71875 21.769531 9.675781 21.808594 9.640625 C 21.890625 9.5625 22.003906 9.496094 22.136719 9.472656 C 22.269531 9.453125 22.417969 9.476562 22.542969 9.554688 C 22.613281 9.59375 22.671875 9.652344 22.726562 9.714844 C 22.839844 9.625 22.976562 9.558594 23.128906 9.523438 C 23.332031 9.472656 23.578125 9.480469 23.761719 9.628906 C 23.855469 9.703125 23.910156 9.804688 23.949219 9.898438 C 23.949219 9.910156 23.949219 9.921875 23.953125 9.929688 C 23.996094 9.910156 24.046875 9.898438 24.097656 9.898438 C 24.140625 9.898438 24.179688 9.902344 24.214844 9.917969 C 24.179688 9.71875 24.273438 9.046875 24.144531 8.925781 C 23.992188 8.78125 23.460938 9.109375 23.460938 9.253906 L 23.386719 8.734375 C 23.367188 8.597656 23.351562 8.453125 23.292969 8.355469 C 23.234375 8.246094 23.164062 8.175781 23.0625 8.132812 C 22.910156 8.066406 22.6875 8.085938 22.488281 8.140625 C 22.289062 8.195312 22.097656 8.289062 21.9375 8.398438 L 21.726562 8.542969 L 21.578125 8.367188 C 21.351562 8.109375 21.238281 8.390625 21.148438 8.597656 C 21.132812 8.636719 21.121094 8.671875 21.109375 8.703125 C 21.113281 8.773438 21.117188 8.84375 21.113281 8.894531 C 21.09375 9.046875 21.054688 9.121094 21.015625 9.121094 C 20.980469 9.121094 20.953125 9.070312 20.917969 8.992188 C 20.898438 8.972656 20.878906 8.941406 20.867188 8.890625 C 20.863281 8.886719 20.863281 8.878906 20.863281 8.875 C 20.8125 8.761719 20.742188 8.625 20.625 8.484375 C 20.496094 8.328125 20.292969 8.15625 20.085938 8.136719 C 19.984375 8.128906 19.898438 8.152344 19.808594 8.214844 C 19.71875 8.273438 19.640625 8.398438 19.566406 8.527344 L 19.394531 8.808594 L 19.054688 8.574219 C 19.039062 8.558594 19.027344 8.535156 19.011719 8.527344 C 18.976562 8.503906 18.949219 8.496094 18.894531 8.5 C 18.84375 8.503906 18.78125 8.53125 18.71875 8.570312 C 18.601562 8.652344 18.527344 8.78125 18.511719 8.875 L 18.460938 9.269531 L 18.140625 9.117188 C 18.054688 9.078125 17.972656 9.039062 17.910156 9.027344 C 17.84375 9.015625 17.800781 9.015625 17.757812 9.023438 C 17.675781 9.046875 17.585938 9.167969 17.53125 9.269531 C 17.414062 9.484375 17.347656 9.640625 17.289062 9.628906 C 17.234375 9.617188 17.1875 9.464844 17.230469 9.171875 C 17.246094 9.105469 17.261719 9.035156 17.292969 8.957031 C 17.261719 8.964844 17.230469 8.972656 17.191406 8.984375 C 17.054688 9.023438 16.902344 9.09375 16.789062 9.261719 C 16.730469 9.347656 16.6875 9.460938 16.648438 9.597656 C 16.636719 9.628906 16.625 9.664062 16.617188 9.703125 L 16.605469 9.757812 C 16.597656 9.789062 16.589844 9.824219 16.582031 9.859375 C 16.554688 10 16.527344 10.175781 16.492188 10.335938 C 16.390625 10.289062 16.285156 10.238281 16.175781 10.191406 C 16.148438 10.175781 16.121094 10.164062 16.09375 10.160156 C 16.082031 10.152344 16.070312 10.152344 16.054688 10.152344 L 16.039062 10.148438 C 16.019531 10.144531 16 10.148438 15.980469 10.148438 C 15.898438 10.152344 15.8125 10.175781 15.730469 10.222656 C 15.648438 10.265625 15.570312 10.335938 15.515625 10.414062 C 15.5 10.433594 15.488281 10.457031 15.480469 10.476562 C 15.476562 10.488281 15.464844 10.5 15.460938 10.511719 L 15.441406 10.566406 C 15.421875 10.632812 15.425781 10.730469 15.417969 10.808594 C 15.414062 10.890625 15.40625 10.972656 15.398438 11.054688 C 15.28125 11.011719 15.148438 10.957031 15.03125 10.917969 L 14.9375 10.886719 L 14.894531 10.875 C 14.875 10.867188 14.882812 10.875 14.875 10.871094 C 14.863281 10.875 14.84375 10.871094 14.832031 10.875 C 14.792969 10.882812 14.757812 10.902344 14.707031 10.988281 C 14.65625 11.074219 14.617188 11.195312 14.585938 11.332031 C 14.570312 11.402344 14.554688 11.472656 14.539062 11.550781 C 16.066406 11.378906 17.59375 11.515625 19.132812 11.597656 C 20.8125 11.6875 22.492188 11.832031 24.15625 12.070312 C 25 12.191406 25.824219 12.359375 26.660156 12.523438 C 27.25 12.640625 27.984375 12.730469 28.480469 13.109375 C 28.488281 13.113281 28.492188 13.117188 28.5 13.125 Z M 28.25 11.734375 C 28.253906 11.734375 28.253906 11.730469 28.253906 11.730469 C 28.253906 11.726562 28.25 11.722656 28.25 11.71875 C 28.25 11.714844 28.253906 11.710938 28.253906 11.710938 C 28.253906 11.710938 28.253906 11.683594 28.253906 11.683594 L 28.257812 11.683594 L 28.273438 11.71875 C 28.320312 11.722656 28.402344 11.789062 28.445312 11.8125 C 28.464844 11.824219 28.503906 11.839844 28.53125 11.867188 L 28.585938 11.914062 C 28.71875 12.03125 28.847656 12.164062 28.960938 12.34375 C 29.070312 12.515625 29.15625 12.761719 29.117188 13.023438 C 29.082031 13.210938 28.988281 13.375 28.878906 13.507812 C 29.226562 14.007812 29.074219 14.535156 28.730469 15.183594 C 28.542969 15.964844 28.425781 16.765625 28.207031 17.542969 C 27.898438 18.621094 27.605469 19.707031 27.273438 20.78125 C 26.941406 21.839844 26.589844 22.898438 26.269531 23.960938 C 25.96875 24.960938 25.742188 25.996094 25.335938 26.960938 C 25.304688 27.035156 25.246094 27.082031 25.1875 27.109375 C 25.148438 27.195312 25.074219 27.261719 24.957031 27.273438 C 21.722656 27.5625 18.34375 26.894531 15.1875 26.261719 C 15.144531 26.253906 15.113281 26.238281 15.085938 26.21875 C 14.449219 26.421875 13.816406 26.617188 13.171875 26.785156 C 12.03125 27.082031 10.863281 27.226562 9.738281 27.5625 C 8.882812 27.816406 8.027344 28.210938 7.132812 28.28125 C 7.03125 28.289062 6.964844 28.25 6.921875 28.1875 C 6.875 28.15625 6.839844 28.109375 6.820312 28.042969 C 6.695312 27.589844 6.554688 27.140625 6.414062 26.691406 C 6.402344 26.695312 6.386719 26.699219 6.371094 26.703125 C 5.308594 26.863281 3.601562 27.5 2.589844 26.855469 C 1.609375 26.230469 1.808594 24.738281 1.785156 23.742188 C 1.726562 21.578125 1.878906 19.390625 1.753906 17.230469 C 1.636719 15.199219 1.171875 13.28125 1.457031 11.234375 C 1.472656 11.144531 1.550781 11.082031 1.636719 11.054688 C 1.488281 10.671875 1.226562 10.339844 1.011719 9.992188 C 0.972656 9.925781 0.964844 9.863281 0.976562 9.808594 C 0.964844 9.753906 0.976562 9.695312 1.011719 9.636719 C 1.316406 9.136719 1.839844 8.980469 2.367188 8.792969 C 3.167969 8.507812 3.871094 7.96875 4.660156 7.636719 C 6.386719 6.914062 8.128906 6.210938 9.871094 5.523438 C 11.925781 4.714844 14 3.945312 16.027344 3.066406 C 17.785156 2.304688 19.507812 1.480469 21.285156 0.761719 C 21.289062 0.761719 21.292969 0.761719 21.292969 0.761719 C 21.386719 0.703125 21.507812 0.699219 21.605469 0.800781 C 22.097656 1.3125 22.355469 1.976562 22.675781 2.597656 C 22.695312 2.625 22.714844 2.648438 22.734375 2.671875 C 22.753906 2.695312 22.753906 2.703125 22.734375 2.6875 C 22.828125 2.800781 22.847656 2.949219 22.734375 3.0625 C 22.710938 3.085938 22.683594 3.105469 22.652344 3.117188 C 22.628906 3.144531 22.601562 3.171875 22.5625 3.191406 C 20.984375 4.078125 19.140625 4.550781 17.480469 5.277344 C 15.832031 5.992188 14.195312 6.746094 12.558594 7.480469 C 10.96875 8.195312 9.394531 8.90625 7.847656 9.699219 C 6.886719 10.1875 5.910156 10.5625 4.910156 10.90625 C 8.011719 10.746094 11.109375 10.558594 14.21875 10.683594 C 14.234375 10.683594 14.25 10.683594 14.265625 10.6875 C 14.28125 10.660156 14.300781 10.632812 14.328125 10.605469 L 14.378906 10.546875 L 14.441406 10.492188 C 14.527344 10.417969 14.644531 10.371094 14.757812 10.355469 C 14.8125 10.347656 14.863281 10.351562 14.914062 10.351562 L 14.945312 10.355469 L 14.960938 10.355469 C 14.972656 10.359375 14.964844 10.363281 14.96875 10.363281 L 14.972656 10.359375 C 14.972656 10.355469 14.984375 10.324219 14.992188 10.308594 C 15 10.285156 15.015625 10.265625 15.027344 10.246094 C 15.046875 10.203125 15.070312 10.164062 15.101562 10.125 C 15.210938 9.972656 15.351562 9.863281 15.503906 9.789062 C 15.652344 9.714844 15.816406 9.675781 15.976562 9.679688 C 16.019531 9.679688 16.058594 9.679688 16.097656 9.6875 L 16.125 9.691406 L 16.128906 9.691406 L 16.132812 9.695312 C 16.140625 9.699219 16.148438 9.703125 16.15625 9.710938 C 16.167969 9.707031 16.167969 9.691406 16.175781 9.671875 L 16.1875 9.648438 L 16.207031 9.585938 C 16.21875 9.542969 16.234375 9.503906 16.25 9.460938 C 16.3125 9.304688 16.390625 9.15625 16.496094 9.039062 C 16.597656 8.917969 16.722656 8.835938 16.839844 8.789062 C 16.957031 8.738281 17.066406 8.726562 17.152344 8.722656 C 17.269531 8.722656 17.355469 8.730469 17.425781 8.746094 C 17.457031 8.710938 17.496094 8.675781 17.542969 8.648438 C 17.664062 8.566406 17.820312 8.535156 17.960938 8.542969 C 17.988281 8.546875 18.015625 8.550781 18.039062 8.554688 C 18.101562 8.378906 18.21875 8.226562 18.367188 8.109375 C 18.488281 8.019531 18.632812 7.941406 18.816406 7.914062 C 18.941406 7.890625 19.09375 7.910156 19.222656 7.964844 C 19.292969 7.878906 19.378906 7.800781 19.484375 7.734375 C 19.691406 7.597656 19.964844 7.554688 20.183594 7.605469 C 20.40625 7.652344 20.570312 7.773438 20.699219 7.886719 C 20.761719 7.949219 20.820312 8.011719 20.863281 8.074219 C 20.886719 8.105469 20.90625 8.136719 20.925781 8.167969 C 20.953125 8.101562 20.988281 8.03125 21.042969 7.953125 C 21.070312 7.925781 21.089844 7.898438 21.125 7.871094 C 21.160156 7.84375 21.195312 7.816406 21.238281 7.796875 C 21.285156 7.777344 21.335938 7.757812 21.386719 7.753906 C 21.441406 7.753906 21.5 7.75 21.546875 7.761719 C 21.589844 7.773438 21.636719 7.789062 21.683594 7.804688 C 21.714844 7.824219 21.746094 7.839844 21.773438 7.859375 C 21.933594 7.75 22.113281 7.65625 22.316406 7.585938 C 22.457031 7.542969 22.605469 7.507812 22.773438 7.5 C 22.933594 7.492188 23.113281 7.507812 23.289062 7.582031 C 23.535156 7.679688 23.730469 7.886719 23.828125 8.101562 C 23.859375 8.167969 23.878906 8.234375 23.898438 8.300781 C 23.953125 8.289062 24.011719 8.28125 24.082031 8.285156 C 24.15625 8.292969 24.234375 8.320312 24.296875 8.363281 C 24.359375 8.40625 24.40625 8.453125 24.4375 8.503906 C 24.488281 8.582031 24.511719 8.652344 24.527344 8.71875 C 24.621094 8.6875 24.722656 8.6875 24.808594 8.714844 C 24.945312 8.753906 25.058594 8.832031 25.152344 8.929688 C 25.222656 8.898438 25.292969 8.875 25.371094 8.863281 C 25.554688 8.832031 25.753906 8.855469 25.929688 8.933594 C 26.074219 9 26.199219 9.09375 26.296875 9.214844 C 26.390625 9.339844 26.464844 9.480469 26.476562 9.636719 C 26.492188 9.714844 26.476562 9.789062 26.472656 9.859375 C 26.464844 9.894531 26.453125 9.925781 26.445312 9.957031 C 26.464844 9.960938 26.484375 9.960938 26.5 9.964844 C 26.65625 9.96875 26.84375 10.007812 27.035156 10.128906 C 27.167969 10.214844 27.304688 10.335938 27.394531 10.523438 C 27.414062 10.570312 27.433594 10.621094 27.449219 10.671875 C 27.460938 10.722656 27.472656 10.78125 27.480469 10.832031 C 27.480469 10.847656 27.484375 10.863281 27.484375 10.878906 L 27.484375 10.898438 C 27.484375 10.898438 27.5 10.894531 27.507812 10.894531 L 27.511719 10.894531 C 27.515625 10.894531 27.515625 10.890625 27.515625 10.890625 L 27.5625 10.898438 C 27.683594 10.925781 27.816406 10.960938 27.945312 11.042969 C 27.976562 11.0625 28.007812 11.089844 28.039062 11.117188 C 28.070312 11.144531 28.101562 11.167969 28.128906 11.207031 C 28.148438 11.242188 28.1875 11.28125 28.207031 11.332031 C 28.230469 11.382812 28.246094 11.441406 28.25 11.488281 C 28.257812 11.582031 28.253906 11.65625 28.25 11.707031 C 28.25 11.710938 28.25 11.714844 28.25 11.71875 C 28.25 11.726562 28.25 11.730469 28.25 11.734375 Z M 14.105469 12.179688 C 14.109375 12.195312 14.117188 12.207031 14.125 12.21875 C 14.132812 12.226562 14.132812 12.230469 14.132812 12.234375 C 14.152344 12.253906 14.175781 12.273438 14.195312 12.292969 C 14.234375 12.324219 14.253906 12.363281 14.265625 12.402344 C 17.257812 12.144531 20.207031 12.457031 23.183594 12.78125 C 24.589844 12.9375 25.910156 13.269531 27.265625 13.675781 C 27.660156 13.792969 28.148438 13.835938 28.5 14.050781 C 28.503906 14.042969 28.507812 14.039062 28.507812 14.03125 C 28.515625 14.003906 28.527344 13.984375 28.542969 13.964844 C 28.410156 13.578125 27.882812 13.359375 27.5625 13.273438 C 27.03125 13.125 26.484375 13.023438 25.945312 12.914062 C 24.578125 12.632812 23.191406 12.457031 21.800781 12.328125 C 19.308594 12.089844 16.589844 11.722656 14.097656 12.144531 C 14.101562 12.160156 14.109375 12.179688 14.105469 12.179688 " fill-opacity="1" fill-rule="nonzero"/></g><path fill="#000000" d="M 26.84375 12.289062 C 26.898438 12.328125 26.929688 12.351562 26.929688 12.371094 C 26.925781 12.382812 26.882812 12.390625 26.804688 12.378906 C 26.730469 12.359375 26.628906 12.3125 26.515625 12.238281 L 26.433594 12.1875 L 26.515625 12.101562 C 26.570312 12.046875 26.621094 11.949219 26.609375 11.867188 C 26.601562 11.824219 26.582031 11.808594 26.5625 11.800781 C 26.539062 11.792969 26.488281 11.792969 26.429688 11.8125 L 26.222656 11.882812 L 26.257812 11.652344 C 26.277344 11.535156 26.285156 11.40625 26.242188 11.332031 C 26.199219 11.261719 26.101562 11.21875 25.96875 11.222656 C 25.664062 11.242188 25.363281 11.429688 25.238281 11.636719 L 25.140625 11.796875 L 25.023438 11.664062 C 24.941406 11.566406 24.820312 11.503906 24.714844 11.488281 C 24.605469 11.472656 24.519531 11.5 24.472656 11.546875 C 24.375 11.652344 24.398438 11.796875 24.363281 11.792969 C 24.347656 11.796875 24.332031 11.769531 24.3125 11.71875 C 24.304688 11.667969 24.28125 11.566406 24.34375 11.457031 C 24.410156 11.34375 24.570312 11.265625 24.730469 11.277344 C 24.84375 11.277344 24.972656 11.3125 25.085938 11.382812 C 25.164062 11.28125 25.265625 11.1875 25.382812 11.113281 C 25.542969 11.011719 25.734375 10.9375 25.953125 10.925781 C 26.050781 10.925781 26.152344 10.929688 26.253906 10.976562 C 26.304688 10.996094 26.355469 11.019531 26.394531 11.0625 C 26.441406 11.097656 26.46875 11.144531 26.496094 11.191406 C 26.558594 11.316406 26.566406 11.433594 26.554688 11.542969 C 26.59375 11.546875 26.632812 11.554688 26.675781 11.578125 C 26.792969 11.636719 26.84375 11.761719 26.839844 11.855469 C 26.835938 11.996094 26.777344 12.097656 26.703125 12.171875 C 26.757812 12.21875 26.808594 12.261719 26.84375 12.289062 " fill-opacity="1" fill-rule="nonzero"/><path fill="#000000" d="M 21.550781 10.734375 C 21.554688 10.75 21.519531 10.777344 21.449219 10.792969 C 21.371094 10.800781 21.320312 10.8125 21.253906 10.882812 L 21.152344 10.976562 L 21.09375 10.820312 C 21.054688 10.71875 20.976562 10.59375 20.855469 10.53125 C 20.730469 10.464844 20.628906 10.484375 20.539062 10.625 L 20.523438 10.652344 L 20.421875 10.800781 L 20.292969 10.691406 C 20.164062 10.585938 20.023438 10.523438 19.917969 10.546875 C 19.867188 10.554688 19.824219 10.578125 19.789062 10.613281 C 19.761719 10.648438 19.742188 10.691406 19.734375 10.738281 C 19.722656 10.835938 19.757812 10.925781 19.769531 10.988281 C 19.796875 11.054688 19.804688 11.097656 19.789062 11.109375 C 19.769531 11.121094 19.730469 11.101562 19.675781 11.054688 C 19.625 10.996094 19.539062 10.898438 19.527344 10.742188 C 19.519531 10.660156 19.53125 10.566406 19.585938 10.472656 C 19.644531 10.386719 19.738281 10.3125 19.851562 10.28125 C 20.027344 10.234375 20.207031 10.285156 20.355469 10.371094 C 20.421875 10.300781 20.515625 10.238281 20.621094 10.21875 C 20.773438 10.183594 20.90625 10.234375 21.003906 10.300781 C 21.152344 10.40625 21.230469 10.542969 21.269531 10.671875 C 21.285156 10.667969 21.304688 10.660156 21.320312 10.660156 C 21.382812 10.660156 21.425781 10.671875 21.453125 10.683594 C 21.511719 10.703125 21.546875 10.714844 21.550781 10.734375 " fill-opacity="1" fill-rule="nonzero"/><path fill="#000000" d="M 19.832031 9.792969 C 19.894531 9.816406 19.925781 9.835938 19.921875 9.847656 C 19.917969 9.886719 19.777344 9.875 19.5625 9.914062 C 19.460938 9.9375 19.335938 9.972656 19.21875 10.050781 C 19.097656 10.128906 18.980469 10.238281 18.867188 10.378906 L 18.699219 10.589844 L 18.625 10.3125 C 18.59375 10.195312 18.5625 10.0625 18.496094 9.976562 C 18.433594 9.890625 18.375 9.882812 18.261719 9.921875 C 18.136719 9.96875 18.011719 10.082031 17.910156 10.195312 C 17.808594 10.308594 17.722656 10.429688 17.652344 10.550781 L 17.59375 10.65625 L 17.492188 10.617188 C 17.34375 10.5625 17.195312 10.546875 17.085938 10.574219 C 16.976562 10.601562 16.914062 10.671875 16.886719 10.753906 C 16.835938 10.921875 16.878906 11.058594 16.84375 11.066406 C 16.828125 11.070312 16.804688 11.042969 16.777344 10.992188 C 16.753906 10.9375 16.71875 10.847656 16.730469 10.722656 C 16.734375 10.597656 16.835938 10.429688 17.015625 10.367188 C 17.152344 10.308594 17.308594 10.308594 17.464844 10.339844 C 17.527344 10.226562 17.597656 10.113281 17.6875 10.003906 C 17.808594 9.867188 17.941406 9.730469 18.152344 9.640625 C 18.242188 9.605469 18.359375 9.582031 18.476562 9.617188 C 18.535156 9.628906 18.585938 9.664062 18.632812 9.691406 C 18.667969 9.730469 18.710938 9.769531 18.738281 9.808594 C 18.789062 9.882812 18.820312 9.957031 18.839844 10.027344 C 18.925781 9.957031 19.015625 9.894531 19.105469 9.851562 C 19.265625 9.769531 19.425781 9.753906 19.550781 9.75 C 19.671875 9.753906 19.769531 9.769531 19.832031 9.792969 " fill-opacity="1" fill-rule="nonzero"/><path fill="#000000" d="M 17.648438 21.960938 C 17.671875 22.027344 16.195312 22.609375 14.316406 23.113281 C 12.449219 23.609375 10.933594 24.058594 10.90625 23.972656 C 10.882812 23.902344 12.347656 23.328125 14.238281 22.824219 C 16.109375 22.324219 17.613281 21.875 17.648438 21.960938 " fill-opacity="1" fill-rule="nonzero"/><path fill="#000000" d="M 17.246094 23.042969 C 17.257812 23.082031 16.949219 23.214844 16.441406 23.394531 C 16.1875 23.484375 15.886719 23.585938 15.546875 23.695312 C 15.207031 23.808594 14.835938 23.914062 14.457031 24.058594 C 14.074219 24.199219 13.707031 24.332031 13.375 24.453125 C 13.035156 24.570312 12.722656 24.667969 12.464844 24.746094 C 11.9375 24.867188 11.609375 24.917969 11.597656 24.878906 C 11.585938 24.839844 11.898438 24.714844 12.40625 24.542969 C 12.652344 24.4375 12.945312 24.328125 13.273438 24.195312 C 13.601562 24.0625 13.964844 23.914062 14.355469 23.777344 C 14.742188 23.628906 15.125 23.527344 15.464844 23.433594 C 15.808594 23.339844 16.117188 23.257812 16.378906 23.191406 C 16.898438 23.066406 17.230469 23.003906 17.246094 23.042969 " fill-opacity="1" fill-rule="nonzero"/><path fill="#000000" d="M 15.4375 24.390625 C 15.464844 24.46875 14.984375 24.714844 14.363281 24.941406 C 13.742188 25.179688 13.210938 25.308594 13.183594 25.230469 C 13.152344 25.15625 13.632812 24.902344 14.25 24.664062 C 14.875 24.4375 15.40625 24.3125 15.4375 24.390625 " fill-opacity="1" fill-rule="nonzero"/><path fill="#000000" d="M 13.769531 19.316406 C 13.769531 19.378906 12.417969 19.425781 10.496094 19.445312 C 10.480469 19.964844 10.453125 20.289062 10.40625 20.289062 C 10.367188 20.289062 10.320312 19.96875 10.28125 19.449219 C 9.722656 19.453125 9.117188 19.453125 8.488281 19.453125 C 5.570312 19.441406 3.207031 19.371094 3.207031 19.285156 C 3.207031 19.203125 5.570312 19.144531 8.488281 19.152344 C 9.113281 19.15625 9.707031 19.160156 10.265625 19.167969 C 10.238281 18.699219 10.222656 18.117188 10.230469 17.484375 C 10.246094 16.863281 10.289062 16.292969 10.339844 15.828125 C 9.703125 15.851562 8.988281 15.863281 8.234375 15.878906 C 6.882812 15.863281 5.65625 15.863281 4.777344 15.761719 C 3.898438 15.683594 3.355469 15.613281 3.355469 15.574219 C 3.359375 15.53125 3.90625 15.527344 4.792969 15.550781 C 5.675781 15.597656 6.890625 15.566406 8.234375 15.578125 C 9 15.566406 9.726562 15.5625 10.371094 15.5625 C 10.441406 15.019531 10.519531 14.683594 10.558594 14.691406 C 10.601562 14.695312 10.605469 15.027344 10.589844 15.5625 C 10.992188 15.5625 11.359375 15.566406 11.683594 15.574219 C 12.570312 15.589844 13.117188 15.621094 13.117188 15.660156 C 13.117188 15.703125 12.570312 15.746094 11.6875 15.785156 C 11.363281 15.796875 10.988281 15.8125 10.582031 15.824219 C 10.566406 16.289062 10.546875 16.863281 10.53125 17.488281 C 10.523438 18.121094 10.515625 18.699219 10.503906 19.167969 C 12.417969 19.195312 13.769531 19.253906 13.769531 19.316406 " fill-opacity="1" fill-rule="nonzero"/><path fill="#000000" d="M 10.597656 26.226562 C 10.675781 26.378906 10.445312 26.511719 10.367188 26.359375 C 10.324219 26.277344 10.273438 26.199219 10.230469 26.117188 C 10.152344 25.964844 10.386719 25.832031 10.464844 25.980469 C 10.507812 26.066406 10.554688 26.144531 10.597656 26.226562 " fill-opacity="1" fill-rule="nonzero"/><path fill="#000000" d="M 10.367188 25.59375 C 10.40625 25.761719 10.144531 25.832031 10.109375 25.664062 C 10.082031 25.5625 10.035156 25.476562 9.988281 25.386719 C 9.910156 25.234375 10.140625 25.097656 10.21875 25.253906 C 10.273438 25.363281 10.335938 25.472656 10.367188 25.59375 " fill-opacity="1" fill-rule="nonzero"/><path fill="#000000" d="M 10.125 24.898438 C 10.140625 25.070312 9.871094 25.070312 9.855469 24.898438 C 9.851562 24.84375 9.8125 24.789062 9.796875 24.734375 C 9.734375 24.578125 9.992188 24.507812 10.054688 24.667969 C 10.082031 24.746094 10.117188 24.8125 10.125 24.898438 " fill-opacity="1" fill-rule="nonzero"/><path fill="#000000" d="M 9.902344 24.257812 C 9.90625 24.429688 9.640625 24.429688 9.632812 24.257812 C 9.632812 24.203125 9.613281 24.152344 9.585938 24.105469 C 9.496094 23.957031 9.726562 23.824219 9.816406 23.972656 C 9.871094 24.058594 9.898438 24.15625 9.902344 24.257812 " fill-opacity="1" fill-rule="nonzero"/><path fill="#000000" d="M 9.769531 23.683594 C 9.773438 23.855469 9.503906 23.855469 9.5 23.683594 C 9.5 23.613281 9.484375 23.550781 9.453125 23.484375 C 9.378906 23.332031 9.609375 23.195312 9.683594 23.351562 C 9.734375 23.460938 9.765625 23.566406 9.769531 23.683594 " fill-opacity="1" fill-rule="nonzero"/><path fill="#000000" d="M 9.5625 22.988281 C 9.621094 23.148438 9.359375 23.21875 9.304688 23.054688 C 9.277344 22.984375 9.242188 22.914062 9.207031 22.847656 C 9.128906 22.691406 9.359375 22.558594 9.4375 22.710938 C 9.484375 22.800781 9.527344 22.890625 9.5625 22.988281 " fill-opacity="1" fill-rule="nonzero"/><path fill="#000000" d="M 3.179688 10.316406 C 3.28125 10.242188 3.386719 10.101562 3.382812 9.980469 C 3.382812 9.9375 3.375 9.898438 3.332031 9.867188 C 3.246094 9.816406 3.148438 9.808594 3.050781 9.808594 C 2.742188 9.816406 2.527344 10.136719 2.808594 10.355469 C 2.921875 10.445312 3.074219 10.398438 3.179688 10.316406 Z M 3.050781 9.542969 C 3.320312 9.546875 3.660156 9.65625 3.648438 9.980469 C 3.644531 10.230469 3.46875 10.472656 3.253906 10.589844 C 2.988281 10.726562 2.699219 10.675781 2.519531 10.433594 C 2.203125 10.019531 2.59375 9.558594 3.050781 9.542969 " fill-opacity="1" fill-rule="nonzero"/></svg>